# xmcd
#
# Track frame offsets: 
#        150
#        10885
#        28345
#        44050
#        57880
#        71662
#        84205
#        98658
#        110423
#        123655
#        138295
#        159560
#        173520
#        190073
#        204858
#        219008
#        234168
#
# Disc length: 3316 seconds
#
# Revision: 2
# Processed by: cddbd v1.5.2PL0 Copyright (c) Steve Scherf et al.
# Submitted via: ExactAudioCopy v0.95b4
#
DISCID=d90cf211
DTITLE=Wayne Henderson - W.C. Henderson and Company
DYEAR=1994
DGENRE=Bluegrass
TTITLE0=Hey, Good Lookin'
TTITLE1=Hangman's Reel
TTITLE2=St. Anne's Reel
TTITLE3=Whistlin' Rufus
TTITLE4=Handsome Molly
TTITLE5=Bill Bailey (Won't You Come Home)
TTITLE6=Billy in the Lowground
TTITLE7=Carter Family Medley (Picture on the Wall, When the Roses Bloo
TTITLE7=m in Dixieland, Foggy Mountain Top)
TTITLE8=Spinning Wheel
TTITLE9=The Cat Came Back
TTITLE10=Salty
TTITLE11=Alabama Jubilee
TTITLE12=Sweet Fern
TTITLE13=Whiskey Before Breakfast
TTITLE14=Back Up and Push
TTITLE15=Sweet Sunny South
TTITLE16=Peace in the Valley
EXTD=
EXTT0=
EXTT1=
EXTT2=
EXTT3=
EXTT4=
EXTT5=
EXTT6=
EXTT7=
EXTT8=
EXTT9=
EXTT10=
EXTT11=
EXTT12=
EXTT13=
EXTT14=
EXTT15=
EXTT16=
PLAYORDER=
